<svg width="224" height="63" viewBox="0 0 224 63" fill="none" xmlns="http://www.w3.org/2000/svg">
<path d="M45.86 48V16.5H48.11V45.75H63.545V48H45.86ZM77.2971 48.45C75.0471 48.45 73.0371 47.94 71.2671 46.92C69.5271 45.9 68.1621 44.475 67.1721 42.645C66.1821 40.815 65.6871 38.685 65.6871 36.255C65.6871 34.485 65.9571 32.865 66.4971 31.395C67.0671 29.925 67.8471 28.65 68.8371 27.57C69.8271 26.46 71.0121 25.605 72.3921 25.005C73.8021 24.405 75.3321 24.105 76.9821 24.105C78.6021 24.105 80.0571 24.375 81.3471 24.915C82.6671 25.455 83.7771 26.235 84.6771 27.255C85.5771 28.245 86.2521 29.43 86.7021 30.81C87.1521 32.16 87.3471 33.66 87.2871 35.31L87.2421 36.525H67.3521V34.455H86.0271L85.0371 35.265V34.185C85.0371 32.985 84.7371 31.785 84.1371 30.585C83.5671 29.385 82.6821 28.38 81.4821 27.57C80.2821 26.76 78.7671 26.355 76.9371 26.355C75.2271 26.355 73.6971 26.73 72.3471 27.48C71.0271 28.23 69.9771 29.325 69.1971 30.765C68.4471 32.205 68.0721 33.99 68.0721 36.12C68.0721 38.16 68.4471 39.945 69.1971 41.475C69.9471 42.975 71.0271 44.145 72.4371 44.985C73.8771 45.795 75.6321 46.2 77.7021 46.2C78.8121 46.2 79.9521 46.02 81.1221 45.66C82.2921 45.3 83.6121 44.52 85.0821 43.32L86.2521 44.985C85.5921 45.615 84.8121 46.2 83.9121 46.74C83.0121 47.25 82.0071 47.67 80.8971 48C79.7871 48.3 78.5871 48.45 77.2971 48.45ZM101.149 48.45C99.0188 48.45 97.1138 47.925 95.4338 46.875C93.7538 45.825 92.4188 44.385 91.4288 42.555C90.4688 40.725 89.9888 38.64 89.9888 36.3C89.9888 33.93 90.4838 31.83 91.4738 30C92.4938 28.17 93.8438 26.73 95.5238 25.68C97.2038 24.63 99.0788 24.105 101.149 24.105C102.349 24.105 103.489 24.285 104.569 24.645C105.649 25.005 106.624 25.515 107.494 26.175C108.364 26.805 109.114 27.555 109.744 28.425C110.374 29.295 110.824 30.24 111.094 31.26L110.194 30.675L110.419 24.6H112.579V48H110.329V42.15L111.094 41.295C110.824 42.285 110.374 43.215 109.744 44.085C109.114 44.955 108.364 45.72 107.494 46.38C106.624 47.04 105.649 47.55 104.569 47.91C103.489 48.27 102.349 48.45 101.149 48.45ZM101.464 46.2C103.174 46.2 104.704 45.78 106.054 44.94C107.434 44.07 108.514 42.9 109.294 41.43C110.104 39.93 110.509 38.205 110.509 36.255C110.509 34.335 110.119 32.64 109.339 31.17C108.559 29.67 107.479 28.5 106.099 27.66C104.749 26.79 103.204 26.355 101.464 26.355C99.6938 26.355 98.1188 26.79 96.7388 27.66C95.3888 28.5 94.3238 29.67 93.5438 31.17C92.7638 32.64 92.3738 34.335 92.3738 36.255C92.3738 38.145 92.7488 39.84 93.4988 41.34C94.2788 42.84 95.3438 44.025 96.6938 44.895C98.0738 45.765 99.6638 46.2 101.464 46.2ZM122.003 48V20.055C122.003 19.065 122.228 18.195 122.678 17.445C123.128 16.665 123.773 16.05 124.613 15.6C125.453 15.15 126.428 14.925 127.538 14.925C128.498 14.925 129.338 15.09 130.058 15.42C130.778 15.75 131.393 16.215 131.903 16.815L131.048 18.615C130.478 17.985 129.878 17.565 129.248 17.355C128.618 17.115 128.018 16.995 127.448 16.995C126.758 16.995 126.173 17.115 125.693 17.355C125.243 17.595 124.883 17.955 124.613 18.435C124.373 18.885 124.253 19.44 124.253 20.1V48H123.443C123.143 48 122.873 48 122.633 48C122.423 48 122.213 48 122.003 48ZM117.458 26.67V24.6H130.643V26.67H117.458ZM139.564 58.35L143.929 47.235L144.424 49.935L132.634 24.6H135.019L143.704 43.23C144.034 43.89 144.319 44.55 144.559 45.21C144.829 45.87 145.114 46.545 145.414 47.235L144.064 46.695C144.244 46.275 144.409 45.855 144.559 45.435C144.739 44.985 144.919 44.55 145.099 44.13L152.929 24.6H155.314L145.999 48L141.904 58.35H139.564ZM155.636 48L167.606 16.5H170.666L182.501 48H179.981L171.836 26.22C171.476 25.29 171.161 24.465 170.891 23.745C170.651 23.025 170.411 22.335 170.171 21.675C169.931 21.015 169.691 20.325 169.451 19.605C169.211 18.855 168.941 18.015 168.641 17.085H169.406C169.106 18.075 168.821 18.945 168.551 19.695C168.311 20.445 168.056 21.165 167.786 21.855C167.546 22.515 167.291 23.22 167.021 23.97C166.751 24.69 166.436 25.53 166.076 26.49L157.976 48H155.636ZM160.541 38.505L161.396 36.255H176.831L177.686 38.505H160.541ZM187.966 48V24.6H190.216V48H187.966ZM189.091 19.695C188.431 19.695 187.921 19.515 187.561 19.155C187.201 18.795 187.021 18.3 187.021 17.67C187.021 17.07 187.201 16.59 187.561 16.23C187.921 15.84 188.431 15.645 189.091 15.645C189.751 15.645 190.261 15.825 190.621 16.185C190.981 16.545 191.161 17.04 191.161 17.67C191.161 18.27 190.981 18.765 190.621 19.155C190.261 19.515 189.751 19.695 189.091 19.695ZM197.83 48V24.6H199.99L200.215 29.82H199.9C200.23 28.83 200.74 27.9 201.43 27.03C202.12 26.16 202.96 25.455 203.95 24.915C204.97 24.375 206.14 24.105 207.46 24.105C207.97 24.105 208.435 24.15 208.855 24.24C209.305 24.3 209.71 24.375 210.07 24.465L209.395 27.075C208.975 26.895 208.57 26.775 208.18 26.715C207.79 26.655 207.445 26.625 207.145 26.625C205.945 26.625 204.895 26.835 203.995 27.255C203.125 27.675 202.39 28.26 201.79 29.01C201.22 29.73 200.785 30.555 200.485 31.485C200.215 32.415 200.08 33.39 200.08 34.41V48H197.83Z" fill="#00684A"/>
<g clip-path="url(#clip0_97_298)">
<path d="M20.7522 6.9382C18.0332 3.83841 15.6918 0.690186 15.2135 0.0363256C15.1631 -0.0121085 15.0876 -0.0121085 15.0372 0.0363256C14.5589 0.690186 12.2175 3.83841 9.49845 6.9382C-13.8398 35.5385 13.1742 54.8396 13.1742 54.8396L13.4008 54.9848C13.6022 57.9637 14.1057 62.25 14.1057 62.25H15.1128H16.1198C16.1198 62.25 16.6234 57.9878 16.8248 54.9848L17.0513 54.8155C17.0765 54.8155 44.0905 35.5385 20.7522 6.9382ZM15.1128 54.4036C15.1128 54.4036 13.9043 53.4107 13.577 52.9021V52.8539L15.0372 21.7106C15.0372 21.6137 15.1883 21.6137 15.1883 21.7106L16.6485 52.8539V52.9021C16.3212 53.4107 15.1128 54.4036 15.1128 54.4036Z" fill="#00684A"/>
</g>
<defs>
<clipPath id="clip0_97_298">
<rect width="30" height="62.25" fill="white"/>
</clipPath>
</defs>
</svg>
