<svg width="578" height="514" viewBox="0 0 578 514" fill="none" xmlns="http://www.w3.org/2000/svg">
<g clip-path="url(#clip0_95_292)">
<path d="M94.74 321.121C60.54 321.143 1.02187 292.18 1.00003 257.18C0.97757 221.18 60.4601 193.143 94.6601 193.121L211.26 193.048L311.65 17.0858C317.344 7.08227 327.94 0.975651 339.44 0.968475L395.64 0.933408C406.24 0.926794 413.947 11.122 411.053 21.3238L362.16 192.954L464.96 192.89L508.124 135.263C511.122 131.261 515.92 128.858 520.92 128.855L562.92 128.829C570.72 128.824 576.924 135.12 576.929 142.82C576.93 144.12 576.73 145.42 576.431 146.721L545 256.84L576.569 366.921C576.969 368.22 577.07 369.52 577.071 370.82C577.076 378.62 570.78 384.824 563.08 384.829L521.08 384.855C516.08 384.858 511.278 382.461 508.276 378.463L465.04 320.89L362.14 320.954L411.247 492.524C414.253 502.722 406.56 512.927 395.96 512.933L339.76 512.968C328.26 512.976 317.656 506.782 311.95 496.886L211.34 321.048L94.74 321.121Z" fill="black"/>
</g>
<defs>
<clipPath id="clip0_95_292">
<rect width="576" height="512" fill="white" transform="translate(577.16 512.82) rotate(179.964)"/>
</clipPath>
</defs>
</svg>
